# xmcd
#
# Track frame offsets:
#	183
#	11268
#	22725
#	37480
#	52468
#	67490
#	82445
#	95358
#	107025
#	119585
#	131358
#	143490
#	153970
#	165838
#	181625
#	194425
#	205465
#	219243
#
# Disc length: 3059 seconds
#
# Revision: 2
# Processed by: cddbd v1.5.2PL0 Copyright (c) Steve Scherf et al.
# Submitted via: audiograbber 1.83.01
#
DISCID=010bf112
DTITLE=Les Plus Beaux Tangos and Paso Dobles - Tango et Paso Vogue -  CD1
DYEAR=1990
DGENRE=Tango and Paso
TTITLE0=01 - Primo Corchia - La Cumparsita (tango)
TTITLE1=02 - Primo Corchia - Adios Muchachos (tango)
TTITLE2=03 - Primo Corchia - Tarde De Madrid (Paso Doble)
TTITLE3=04 - Primo Corchia - Trinia (Paso Doble)
TTITLE4=05 - Emilio Armango - lVioletta (Tango)
TTITLE5=06 - Emilio Armangol - Tristesse (Tango)
TTITLE6=07 - Emilio Armangol - El Gato Montes (Paso Doble)
TTITLE7=08 - Emilio Armangol - La Muerte De Manolette (Paso Doble)
TTITLE8=09 - Primo Corchia - Jalousie (Tango)
TTITLE9=10 - Primo Corchia - Martha (Tango)
TTITLE10=11 - Pepe Numez - Espana Cani (Paso Doble)
TTITLE11=12 - Pepe Numez - Adios Sevilla (Paso Doble)
TTITLE12=13 - Ramon Ramirez - Tango De Marilou (Tango)
TTITLE13=14 - Ramon Ramirez - Le Plus Beau Tango Du Monde (Tango)
TTITLE14=15 - Angelito Miguel - El Relicario (Paso Doble)
TTITLE15=16 - Angelito Miguel - Islas Canarias (Paso Doble)
TTITLE16=17 - Primo Corchia - Rêve d'Amour (Tango)
TTITLE17=18 - Primo Corchia - La Paloma (Tango)
EXTD=tango paso doble
EXTT0=
EXTT1=
EXTT2=
EXTT3=
EXTT4=
EXTT5=
EXTT6=
EXTT7=
EXTT8=
EXTT9=
EXTT10=
EXTT11=
EXTT12=
EXTT13=
EXTT14=
EXTT15=
EXTT16=
EXTT17=
PLAYORDER=
